<svg width="53" height="42" viewBox="0 0 53 42" fill="none" xmlns="http://www.w3.org/2000/svg">
<path d="M29.9212 11.6393C37.9598 11.6393 42.5202 16.947 43.1824 23.3583H43.3854C48.5584 23.3583 52.7522 27.5321 52.7522 32.6792C52.7522 37.8275 48.5584 42 43.3854 42H16.4544C11.2826 42 7.08884 37.8275 7.08884 32.6792C7.08884 27.5321 11.2826 23.3583 16.4557 23.3583H16.6586C17.3259 16.9053 21.8812 11.6393 29.9212 11.6393V11.6393ZM6.54591 22.008C6.82165 22.4847 6.90959 23.0468 6.79256 23.5847C6.67554 24.1226 6.36195 24.5977 5.91291 24.9175L5.73278 25.0327L4.08496 25.9818C3.59105 26.2673 3.0059 26.352 2.45104 26.2183C1.89618 26.0846 1.41426 25.7429 1.10536 25.264C0.796456 24.7851 0.684322 24.2059 0.792243 23.6467C0.900164 23.0875 1.21985 22.5913 1.68489 22.2611L1.86502 22.1459L3.51412 21.1968C4.02385 20.9032 4.62957 20.8237 5.19809 20.9756C5.76662 21.1274 6.25141 21.4983 6.54591 22.0067V22.008ZM24.4779 9.93457C19.6562 11.4785 16.221 15.1107 14.8117 19.959L14.6924 20.3893L14.5453 20.9917L14.0226 21.0892C12.5036 21.408 11.0628 22.0235 9.7832 22.9002C8.61606 20.906 8.17848 18.5697 8.54509 16.2896C8.91171 14.0095 10.0598 11.9269 11.7936 10.397C13.5274 8.86708 15.7394 7.98458 18.0525 7.90002C20.3656 7.81546 22.6365 8.53408 24.4779 9.9333V9.93457ZM3.92766 9.08411L4.0951 9.15372L5.82031 9.95608C6.34276 10.1958 6.7516 10.6284 6.96073 11.1628C7.16987 11.6972 7.16299 12.2917 6.94154 12.8211C6.72009 13.3506 6.30135 13.7737 5.77349 14.0012C5.24564 14.2288 4.64985 14.2432 4.1116 14.0413L3.94415 13.9704L2.21895 13.1681C1.7005 12.9259 1.29587 12.4933 1.08953 11.9606C0.883195 11.4279 0.891108 10.8362 1.11162 10.3092C1.33213 9.78214 1.74819 9.36046 2.27292 9.13218C2.79766 8.90391 3.3905 8.88668 3.92766 9.08411V9.08411ZM28.1693 1.79197C28.6258 2.11069 28.9455 2.58903 29.0649 3.13201C29.1843 3.675 29.0946 4.24291 28.8137 4.723L28.7148 4.87614L27.6238 6.43151C27.2963 6.90276 26.7984 7.22891 26.2348 7.34136C25.6712 7.4538 25.0858 7.34376 24.6018 7.03439C24.1179 6.72503 23.7731 6.24045 23.6399 5.68261C23.5068 5.12477 23.5957 4.53715 23.888 4.0434L23.987 3.89153L25.0779 2.3349C25.2451 2.0965 25.4577 1.89331 25.7037 1.73693C25.9496 1.58055 26.224 1.47405 26.5112 1.42351C26.7984 1.37297 27.0928 1.37939 27.3775 1.4424C27.6622 1.5054 27.9317 1.62376 28.1706 1.79071L28.1693 1.79197ZM15.1148 1.26044L15.1973 1.45786L15.8481 3.2423C16.045 3.77735 16.0276 4.36755 15.7995 4.89013C15.5714 5.4127 15.1501 5.82741 14.6233 6.04798C14.0964 6.26855 13.5047 6.27799 12.9711 6.07434C12.4374 5.87069 12.0031 5.46963 11.7583 4.9546L11.6759 4.75717L11.0251 2.97274C10.8299 2.43803 10.8484 1.84886 11.077 1.32745C11.3055 0.80604 11.7264 0.392395 12.2524 0.172318C12.7785 -0.0477591 13.3692 -0.0573786 13.9022 0.145455C14.4351 0.348288 14.8694 0.748008 15.1148 1.2617V1.26044Z" fill="white"/>
</svg>
