<svg width="14" height="40" viewBox="0 0 14 40" fill="none" xmlns="http://www.w3.org/2000/svg">
<path d="M11.0021 28.0076V4.0021C11.0021 1.7361 9.26598 0 6.99998 0C4.73399 0 2.99789 1.86858 2.99789 4.0021V28.0007C1.39426 29.2001 0.334473 31.201 0.334473 33.3346C0.334473 37.0647 3.26981 40.0001 6.99998 40.0001C10.7302 40.0001 13.6654 37.0647 13.6654 33.3346C13.6654 31.201 12.5987 29.207 11.0021 28.0076ZM6.99998 38.6753C4.06465 38.6753 1.66618 36.2769 1.66618 33.3415C1.66618 31.3405 2.73294 29.6113 4.32959 28.6771V4.0021C4.32959 2.53792 5.52883 1.33868 6.99301 1.33868C8.45719 1.33868 9.65635 2.53792 9.65635 4.0021V28.67C11.26 29.6043 12.3198 31.3335 12.3198 33.3345C12.3338 36.2698 9.93525 38.6753 6.99998 38.6753Z" fill="white"/>
<path d="M8.33165 29.6044C8.33165 29.4719 8.33165 29.4719 8.33165 29.3395V22.6739C8.33165 21.8721 7.80175 21.3422 7.00001 21.3422C6.1982 21.3422 5.6683 21.8721 5.6683 22.6739V29.3395C5.6683 29.4718 5.6683 29.4718 5.6683 29.6044C4.06467 30.1413 3.00488 31.6055 3.00488 33.3346C3.00488 35.6006 4.74099 37.3367 7.00698 37.3367C9.27291 37.3367 11.009 35.6006 11.009 33.3346C11.0021 31.6055 9.93528 30.1413 8.33165 29.6044Z" fill="white"/>
</svg>
