<svg width="32" height="34" viewBox="0 0 32 34" fill="none" xmlns="http://www.w3.org/2000/svg">
<path d="M13.5001 10.3333C13.5001 4.51666 8.00008 0.766656 7.76675 0.616656C7.49114 0.430363 7.16608 0.330811 6.83341 0.330811C6.50075 0.330811 6.17569 0.430363 5.90008 0.616656C5.66675 0.783323 0.166748 4.58332 0.166748 10.3333C0.166748 12.1014 0.869127 13.7971 2.11937 15.0474C3.36961 16.2976 5.0653 17 6.83341 17C8.60152 17 10.2972 16.2976 11.5475 15.0474C12.7977 13.7971 13.5001 12.1014 13.5001 10.3333ZM6.83341 13.6667C5.94936 13.6667 5.10151 13.3155 4.47639 12.6903C3.85127 12.0652 3.50008 11.2174 3.50008 10.3333C3.61431 9.12985 3.96804 7.96137 4.54049 6.89662C5.11294 5.83187 5.89253 4.89235 6.83341 4.13332C7.77782 4.88912 8.55986 5.82785 9.13265 6.89323C9.70544 7.95861 10.0572 9.1287 10.1667 10.3333C10.1667 11.2174 9.81556 12.0652 9.19044 12.6903C8.56532 13.3155 7.71747 13.6667 6.83341 13.6667ZM26.1001 0.616656C25.8245 0.430363 25.4994 0.330811 25.1667 0.330811C24.8341 0.330811 24.509 0.430363 24.2334 0.616656C24.0001 0.783323 18.5001 4.58332 18.5001 10.3333C18.5001 12.1014 19.2025 13.7971 20.4527 15.0474C21.7029 16.2976 23.3986 17 25.1667 17C26.9349 17 28.6305 16.2976 29.8808 15.0474C31.131 13.7971 31.8334 12.1014 31.8334 10.3333C31.8334 4.51666 26.3334 0.766656 26.1001 0.616656ZM25.1667 13.6667C24.2827 13.6667 23.4348 13.3155 22.8097 12.6903C22.1846 12.0652 21.8334 11.2174 21.8334 10.3333C21.9476 9.12985 22.3014 7.96137 22.8738 6.89662C23.4463 5.83187 24.2259 4.89235 25.1667 4.13332C26.1112 4.88912 26.8932 5.82785 27.466 6.89323C28.0388 7.95861 28.3905 9.1287 28.5001 10.3333C28.5001 11.2174 28.1489 12.0652 27.5238 12.6903C26.8986 13.3155 26.0508 13.6667 25.1667 13.6667ZM17.7667 17.2833C17.4911 17.097 17.1661 16.9975 16.8334 16.9975C16.5007 16.9975 16.1757 17.097 15.9001 17.2833C15.6667 17.45 10.1667 21.25 10.1667 27C10.1667 28.7681 10.8691 30.4638 12.1194 31.714C13.3696 32.9643 15.0653 33.6667 16.8334 33.6667C18.6015 33.6667 20.2972 32.9643 21.5475 31.714C22.7977 30.4638 23.5001 28.7681 23.5001 27C23.5001 21.1833 18.0001 17.4333 17.7667 17.2833ZM16.8334 30.3333C15.9494 30.3333 15.1015 29.9821 14.4764 29.357C13.8513 28.7319 13.5001 27.884 13.5001 27C13.6143 25.7965 13.968 24.628 14.5405 23.5633C15.1129 22.4985 15.8925 21.559 16.8334 20.8C17.7778 21.5558 18.5599 22.4945 19.1327 23.5599C19.7054 24.6253 20.0572 25.7954 20.1667 27C20.1667 27.884 19.8156 28.7319 19.1904 29.357C18.5653 29.9821 17.7175 30.3333 16.8334 30.3333Z" fill="white"/>
</svg>
