<svg width="15" height="19" viewBox="0 0 15 19" fill="none" xmlns="http://www.w3.org/2000/svg">
<path d="M7.49998 19C6.14671 17.863 4.89234 16.6165 3.74999 15.2736C2.03571 13.2568 9.4167e-07 10.2533 9.4167e-07 7.39115C-0.000742519 5.92945 0.438759 4.50039 1.26288 3.28481C2.08701 2.06924 3.25871 1.1218 4.6297 0.562404C6.0007 0.00300431 7.50935 -0.143211 8.96474 0.142263C10.4201 0.427737 11.7568 1.13207 12.8057 2.16612C13.504 2.85089 14.0575 3.66528 14.4341 4.56215C14.8108 5.45903 15.0031 6.42058 15 7.39115C15 10.2533 12.9643 13.2568 11.25 15.2736C10.1076 16.6165 8.85325 17.863 7.49998 19ZM7.49998 4.2251C6.6475 4.2251 5.82994 4.55867 5.22714 5.15242C4.62435 5.74617 4.2857 6.55146 4.2857 7.39115C4.2857 8.23084 4.62435 9.03614 5.22714 9.62989C5.82994 10.2236 6.6475 10.5572 7.49998 10.5572C8.35246 10.5572 9.17003 10.2236 9.77282 9.62989C10.3756 9.03614 10.7143 8.23084 10.7143 7.39115C10.7143 6.55146 10.3756 5.74617 9.77282 5.15242C9.17003 4.55867 8.35246 4.2251 7.49998 4.2251Z" fill="#EB3F4F"/>
</svg>
