<svg width="40" height="28" viewBox="0 0 40 28" fill="none" xmlns="http://www.w3.org/2000/svg">
<path d="M32.0695 1.01626C31.8439 0.586884 31.3995 0.358134 30.9451 0.365009C30.4326 0.353134 29.9407 0.649384 29.7464 1.15751L27.9001 6.03563C27.657 6.68001 27.982 7.39938 28.6264 7.64313C28.7707 7.69876 28.9201 7.72501 29.067 7.72501C29.5707 7.72501 30.0451 7.41751 30.2339 6.91876L31.1239 4.56563L33.7326 9.50251C32.8557 9.21751 31.9226 9.05938 30.9526 9.05938C27.1557 9.05938 23.9051 11.4231 22.5789 14.7538C20.1876 13.7925 18.3157 14.32 17.3751 14.7494C16.0476 11.4213 12.7982 9.05938 9.00198 9.05938C8.01261 9.05938 7.06386 9.22501 6.17386 9.52001L8.79136 4.56501L9.68198 6.91813C9.87073 7.41626 10.3457 7.72438 10.8489 7.72438C10.9951 7.72438 11.1445 7.69813 11.2895 7.64251C11.9332 7.39876 12.2582 6.67938 12.0151 6.03501L10.1689 1.15688C9.97636 0.649384 9.48573 0.353134 8.97323 0.364384C8.51761 0.356259 8.07323 0.585634 7.84573 1.01563L1.33823 13.3338C1.33323 13.3438 1.33448 13.3538 1.32948 13.3631C0.483232 14.7369 -0.0148926 16.3469 -0.0148926 18.0763C-0.0148926 23.0481 4.02948 27.0925 9.00136 27.0925C13.9739 27.0925 18.0182 23.0481 18.0182 18.0763C18.0182 17.7938 18.0014 17.515 17.9757 17.2381C18.042 17.2069 18.1107 17.1831 18.1726 17.1388C18.1882 17.1294 19.6857 16.125 21.9814 17.21C21.9545 17.4956 21.9376 17.7844 21.9376 18.0763C21.9376 23.0481 25.982 27.0925 30.9532 27.0925C35.9257 27.0925 39.9701 23.0481 39.9701 18.0763C39.9701 16.1975 39.3907 14.4513 38.4032 13.005L32.0695 1.01626ZM9.00073 24.5981C5.40386 24.5981 2.47823 21.6719 2.47823 18.0756C2.47823 14.4794 5.40386 11.5538 9.00073 11.5538C12.597 11.5538 15.5232 14.4794 15.5232 18.0756C15.5232 21.6719 12.597 24.5981 9.00073 24.5981ZM30.952 24.5981C27.3557 24.5981 24.4301 21.6719 24.4301 18.0756C24.4301 14.4794 27.3557 11.5538 30.952 11.5538C33.1639 11.5538 35.1145 12.6656 36.2951 14.3531L36.3714 14.4988C36.3982 14.5506 36.437 14.59 36.4701 14.6363C37.0976 15.6375 37.4745 16.81 37.4745 18.075C37.4751 21.6719 34.5482 24.5981 30.952 24.5981Z" fill="white"/>
</svg>
