<svg width="33" height="28" viewBox="0 0 33 28" fill="none" xmlns="http://www.w3.org/2000/svg">
<path d="M26.996 11C28.296 10.9963 29.5463 11.499 30.4818 12.4016C31.4174 13.3042 31.9646 14.5356 32.0076 15.8349C32.0505 17.1342 31.5857 18.3991 30.7117 19.3614C29.8378 20.3238 28.6234 20.9079 27.326 20.99L26.996 21C26.964 21 26.93 21 26.898 20.996L26.664 21.014H25.18C25.406 21.556 25.528 22.15 25.528 22.772C25.5353 23.398 25.4174 24.0191 25.1813 24.5989C24.9452 25.1786 24.5956 25.7054 24.1531 26.1483C23.7107 26.5911 23.1842 26.9411 22.6046 27.1777C22.025 27.4143 21.404 27.5327 20.778 27.526C18.772 27.526 17.298 26.64 16.518 25.176C16.3398 24.8402 16.2958 24.4493 16.3948 24.0823C16.4937 23.7153 16.7283 23.3996 17.0512 23.1989C17.374 22.9982 17.761 22.9276 18.1339 23.0013C18.5068 23.075 18.8378 23.2876 19.06 23.596L19.26 23.922C19.532 24.31 19.98 24.526 20.78 24.526C21.0119 24.5327 21.2427 24.4918 21.4582 24.4059C21.6737 24.3201 21.8693 24.191 22.0331 24.0267C22.1968 23.8624 22.3252 23.6663 22.4103 23.4506C22.4954 23.2348 22.5355 23.0038 22.528 22.772C22.528 21.892 21.804 21.142 20.84 21.038L20.41 21.014H1.50003C1.11998 21.0139 0.754149 20.8695 0.476447 20.6101C0.198746 20.3506 0.029883 19.9954 0.00397905 19.6162C-0.0219249 19.2371 0.0970613 18.8622 0.336896 18.5674C0.57673 18.2726 0.919531 18.0798 1.29603 18.028L1.50003 18.014H26.664L26.76 18.018L26.878 18.004L27.23 17.986C27.5728 17.9449 27.899 17.8158 28.1771 17.6112C28.4551 17.4067 28.6755 17.1336 28.8168 16.8186C28.958 16.5037 29.0153 16.1575 28.9832 15.8138C28.951 15.4701 28.8304 15.1406 28.6332 14.8573C28.4359 14.5741 28.1687 14.3467 27.8575 14.1973C27.5463 14.0479 27.2017 13.9815 26.8573 14.0048C26.5129 14.028 26.1804 14.1399 25.8921 14.3298C25.6038 14.5196 25.3695 14.7808 25.212 15.088L25.032 15.502C24.8548 15.8386 24.5562 16.0952 24.1969 16.22C23.8375 16.3448 23.4442 16.3284 23.0965 16.1741C22.7488 16.0198 22.4727 15.7392 22.324 15.389C22.1754 15.0388 22.1654 14.6453 22.296 14.288C22.6479 13.3242 23.2875 12.4919 24.1282 11.9037C24.9689 11.3156 25.97 11.0001 26.996 11ZM14.996 14.99H1.50003C1.11998 14.9899 0.754149 14.8455 0.476447 14.5861C0.198746 14.3266 0.029883 13.9714 0.00397905 13.5922C-0.0219249 13.2131 0.0970613 12.8382 0.336896 12.5434C0.57673 12.2486 0.919531 12.0558 1.29603 12.004L1.50003 11.99H14.998C15.7892 11.99 16.5625 11.7554 17.2203 11.3159C17.8781 10.8764 18.3908 10.2516 18.6935 9.52073C18.9963 8.78983 19.0755 7.98556 18.9212 7.20964C18.7668 6.43371 18.3859 5.72098 17.8265 5.16157C17.267 4.60216 16.5543 4.2212 15.7784 4.06686C15.0025 3.91252 14.1982 3.99173 13.4673 4.29448C12.7364 4.59723 12.1117 5.10992 11.6722 5.76772C11.2326 6.42552 10.998 7.19887 10.998 7.99C10.998 8.38782 10.84 8.76936 10.5587 9.05066C10.2774 9.33196 9.89585 9.49 9.49803 9.49C9.10021 9.49 8.71867 9.33196 8.43737 9.05066C8.15607 8.76936 7.99803 8.38782 7.99803 7.99C7.99804 6.64257 8.38693 5.32377 9.11802 4.19193C9.84912 3.06008 10.8913 2.1633 12.1196 1.60923C13.3478 1.05516 14.7099 0.867347 16.0422 1.06835C17.3746 1.26935 18.6206 1.85061 19.6307 2.74237C20.6409 3.63412 21.3722 4.79846 21.7368 6.09561C22.1015 7.39276 22.084 8.76759 21.6865 10.0551C21.289 11.3425 20.5284 12.4879 19.4959 13.3537C18.4635 14.2195 17.2031 14.7689 15.866 14.936L15.666 14.976L15.46 14.99H1.50003H14.998H14.996Z" fill="white"/>
</svg>
